<svg width="281" height="45" viewBox="0 0 281 45" fill="none" xmlns="http://www.w3.org/2000/svg">
<g filter="url(#filter0_d_1_21)">
<path d="M23.6364 36.5H25.0557L32.3637 4.5H30.9444L23.6364 36.5Z" fill="#2D9CDB" stroke="#2D9CDB"/>
<path d="M37.27 4.5V8.2714L43.9389 20.4878L37.27 32.7123V36.4756L45.9973 20.4878L37.27 4.5Z" fill="#2D9CDB" stroke="#2D9CDB"/>
<path d="M18.7273 36.4756V32.7123L12.0584 20.4878L18.7273 8.2714V4.5L10 20.4878L18.7273 36.4756Z" fill="#2D9CDB" stroke="#2D9CDB"/>
</g>
<path d="M69.9626 26.0956L69.7566 25.9536C68.6851 27.904 67.4075 28.8792 65.9238 28.8792C64.8249 28.8792 63.8942 28.278 63.1317 27.0756C62.3693 25.8731 61.9881 24.2493 61.9881 22.2042C61.9881 19.6668 62.6338 17.3566 63.9251 15.2736C64.557 14.2511 65.4018 13.4226 66.4596 12.7883C67.5174 12.1539 68.6988 11.8367 70.0038 11.8367C70.2511 11.8367 70.6907 11.8746 71.3226 11.9504C71.3501 11.5527 71.4119 11.0698 71.5081 10.5018L70.3541 8.22942C72.0713 6.84709 73.4244 6.15592 74.4135 6.15592C74.9768 6.15592 75.3751 6.31214 75.6087 6.62459C75.8422 6.93704 75.959 7.52405 75.959 8.38565C75.959 9.24724 75.6533 11.6758 75.042 15.6713C74.4307 19.6668 74.125 22.5025 74.125 24.1783C74.125 25.8542 74.338 26.9572 74.7638 27.4874C73.9945 28.4153 73.1943 28.8792 72.3632 28.8792C71.5321 28.8792 70.9242 28.5904 70.5396 28.0129C70.155 27.4353 69.9626 26.7962 69.9626 26.0956ZM65.862 21.1249C65.862 22.2042 66.0647 23.0564 66.4699 23.6813C66.8752 24.3062 67.38 24.6186 67.9845 24.6186C68.7675 24.6186 69.4818 24.1073 70.1275 23.0848C70.3473 19.7142 70.6564 16.798 71.0547 14.3363C69.475 14.3363 68.2146 15.0369 67.2735 16.4382C66.3325 17.8395 65.862 19.4017 65.862 21.1249ZM97.5479 24.6754L97.3419 24.5334C96.9709 25.8968 96.4386 26.9619 95.7449 27.7288C95.0511 28.4958 94.2784 28.8792 93.4267 28.8792C92.259 28.8792 91.3249 28.2733 90.6243 27.0613C89.9237 25.8494 89.5734 24.2304 89.5734 22.2042C89.5734 19.0609 90.3392 16.4287 91.871 14.3079C93.4027 12.1871 95.3087 11.1266 97.5891 11.1266C98.1798 11.1266 98.7225 11.2024 99.217 11.3539C99.2994 11.8841 99.3475 12.348 99.3612 12.7457C100.048 12.1397 100.756 11.8367 101.484 11.8367C102.486 11.8367 102.988 12.5847 102.988 14.0807C102.988 14.6109 102.772 16.211 102.339 18.881C101.906 21.551 101.69 23.5298 101.69 24.8174C101.69 26.1051 101.903 26.9951 102.329 27.4874C101.559 28.4153 100.759 28.8792 99.9279 28.8792C99.0968 28.8792 98.4924 28.5384 98.1146 27.8567C97.7368 27.175 97.5479 26.1145 97.5479 24.6754ZM93.4473 20.8124C93.4473 21.7403 93.5881 22.4552 93.8697 22.957C94.1514 23.4588 94.5532 23.7097 95.0752 23.7097C95.5972 23.7097 96.1124 23.4446 96.6206 22.9144C97.1289 22.3841 97.5548 21.6551 97.8982 20.7272C98.0219 18.8147 98.2897 16.5518 98.7018 13.9386C97.3144 13.9386 96.0917 14.6298 95.034 16.0121C93.9762 17.3945 93.4473 18.9946 93.4473 20.8124ZM123.031 27.601C122.386 27.9229 121.74 28.0839 121.094 28.0839C120.449 28.0839 119.906 27.8188 119.467 27.2886C119.027 26.7584 118.773 26.0388 118.704 25.1299C118.635 24.2209 118.574 22.9001 118.519 21.1675C118.464 19.4348 118.409 18.2087 118.354 17.4892C118.175 15.0843 117.626 13.3706 116.705 12.348C117.351 11.5338 118.161 11.1266 119.137 11.1266C119.673 11.1266 120.14 11.3207 120.538 11.7089C120.936 12.0971 121.256 12.6084 121.496 13.2427C121.737 13.8771 121.932 14.6961 122.083 15.6997C122.317 17.3661 122.434 19.6195 122.434 22.4599C122.434 23.1605 122.413 23.9842 122.372 24.931H123.567C124.982 19.6668 125.69 16.0784 125.69 14.1659C125.69 13.5221 125.587 12.9161 125.38 12.348C126.342 11.5338 127.18 11.1266 127.894 11.1266C129.227 11.1266 129.893 12.1871 129.893 14.3079C129.893 15.9932 129.33 18.9567 128.203 23.1984C127.997 23.9748 127.881 24.4292 127.853 24.5618C126.109 31.4166 123.629 34.8441 120.414 34.8441C119.439 34.8441 118.635 34.5553 118.004 33.9778C117.372 33.4002 117.056 32.6428 117.056 31.7054C117.056 30.7681 117.31 29.7881 117.818 28.7656C118.477 30.0533 119.302 30.6971 120.291 30.6971C120.854 30.6971 121.379 30.4414 121.867 29.9302C122.355 29.4189 122.743 28.6425 123.031 27.601ZM150.493 14.9044C149.985 15.1127 149.579 15.4109 149.277 15.7991C148.975 16.1873 148.707 16.7412 148.474 17.4608C150.795 17.9342 152.43 18.6159 153.378 19.5059C154.326 20.3959 154.8 21.6646 154.8 23.312C154.8 24.3535 154.587 25.2577 154.161 26.0246C153.735 26.7915 153.199 27.3738 152.554 27.7715C151.29 28.51 150.047 28.8792 148.824 28.8792C145.348 28.8792 143.611 27.8472 143.611 25.7832C143.611 24.7417 143.947 23.7002 144.62 22.6587C144.964 23.3215 145.482 23.8896 146.176 24.363C146.87 24.8364 147.546 25.0731 148.206 25.0731C149.346 25.0731 150.033 24.3819 150.266 22.9996C148.178 22.6587 146.667 22.0149 145.733 21.0681C144.799 20.1213 144.332 18.7863 144.332 17.0631C144.332 15.6997 144.658 14.5541 145.311 13.6262C145.963 12.6983 146.774 12.0498 147.742 11.6805C148.711 11.3113 149.803 11.1266 151.018 11.1266C152.234 11.1266 153.237 11.4438 154.027 12.0782C154.817 12.7125 155.212 13.4842 155.212 14.3931C155.212 15.302 154.982 16.0027 154.521 16.495C154.061 16.9874 153.56 17.2335 153.017 17.2335C152.475 17.2335 151.98 17.0347 151.534 16.637C151.087 16.2394 150.74 15.6618 150.493 14.9044ZM170.743 22.9712C169.877 22.9712 169.444 22.28 169.444 20.8977C169.444 19.894 169.637 18.8147 170.021 17.6596C170.31 17.7921 170.732 17.8584 171.289 17.8584C171.845 17.8584 172.738 17.5554 173.967 16.9495C175.197 16.3435 176.128 16.0406 176.76 16.0406C177.625 16.0406 178.058 16.7317 178.058 18.1141C178.058 19.1177 177.865 20.197 177.481 21.3521C177.192 21.2196 176.77 21.1533 176.213 21.1533C175.657 21.1533 174.764 21.4563 173.535 22.0622C172.305 22.6682 171.374 22.9712 170.743 22.9712ZM203.974 11.1266C205.636 11.1266 206.467 12.2723 206.467 14.5635C206.467 15.5482 206.265 17.2146 205.859 19.5627C205.454 21.9107 205.251 23.6813 205.251 24.8742C205.251 26.0672 205.396 26.9383 205.684 27.4874C204.956 28.4153 204.187 28.8792 203.376 28.8792C201.797 28.8792 201.007 27.7052 201.007 25.3571C201.007 24.486 201.213 23.009 201.625 20.9261C202.037 18.8431 202.243 17.4892 202.243 16.8643C202.243 16.0122 202.009 15.5861 201.542 15.5861C201.158 15.5861 200.718 15.8181 200.224 16.282C199.729 16.7459 199.252 17.3708 198.791 18.1567C198.331 18.9425 197.943 19.9367 197.627 21.1391C197.311 22.3415 197.153 23.5629 197.153 24.8032C197.153 26.0435 197.298 26.9383 197.586 27.4874C196.858 28.4153 196.089 28.8792 195.278 28.8792C193.698 28.8792 192.908 27.7052 192.908 25.3571C192.908 23.9558 193.183 21.1154 193.733 16.8359C194.2 13.0676 194.468 10.9562 194.536 10.5018L193.382 8.22942C195.1 6.84709 196.453 6.15592 197.442 6.15592C198.005 6.15592 198.403 6.31214 198.637 6.62459C198.87 6.93704 198.987 7.45304 198.987 8.17261C198.987 9.53601 198.891 11.0225 198.699 12.6321C198.506 14.2416 198.328 15.4251 198.163 16.1826L198.369 16.3246C199.839 12.8593 201.707 11.1266 203.974 11.1266ZM224.265 28.8792C223.056 28.8792 222.211 28.4721 221.73 27.6578C221.249 26.8436 221.009 25.8163 221.009 24.576C221.009 23.3357 221.16 21.6362 221.462 19.4775C221.764 17.3187 221.916 15.7565 221.916 14.7908C221.916 13.825 221.771 13.0676 221.483 12.5184C222.76 11.5906 223.839 11.1266 224.718 11.1266C225.281 11.1266 225.69 11.2829 225.944 11.5953C226.198 11.9078 226.325 12.4143 226.325 13.1149C226.325 13.8156 226.116 15.534 225.697 18.2703C225.278 21.0065 225.068 22.6966 225.068 23.3404C225.068 23.9842 225.199 24.4908 225.46 24.86C225.721 25.2293 226.064 25.4139 226.49 25.4139C226.916 25.4139 227.369 25.1819 227.85 24.718C228.331 24.2541 228.722 23.5961 229.025 22.7439C229.217 21.2101 229.595 18.7863 230.158 15.4725L228.922 13.2001C230.309 11.8178 231.628 11.1266 232.878 11.1266C233.496 11.1266 233.939 11.2829 234.207 11.5953C234.475 11.9078 234.609 12.3812 234.609 13.0155C234.609 13.6499 234.358 15.463 233.857 18.4549C233.355 21.4468 233.105 23.5724 233.105 24.8316C233.105 26.0909 233.318 26.9761 233.743 27.4874C232.974 28.4153 232.167 28.8792 231.322 28.8792C230.477 28.8792 229.869 28.6236 229.499 28.1123C229.128 27.601 228.942 26.9288 228.942 26.0956L228.736 25.9536C228.283 26.8625 227.654 27.5774 226.851 28.0981C226.047 28.6188 225.185 28.8792 224.265 28.8792ZM249.048 22.7723C249.048 21.1817 249.494 17.0915 250.387 10.5018L249.233 8.22942C250.085 7.52879 250.802 7.00805 251.386 6.6672C251.97 6.32635 252.554 6.15592 253.138 6.15592C253.722 6.15592 254.151 6.31688 254.426 6.63879C254.7 6.96071 254.838 7.47198 254.838 8.17261C254.838 9.38452 254.57 11.761 254.034 15.302L254.24 15.4441C255.229 12.7362 256.672 11.3823 258.567 11.3823C259.639 11.3823 260.477 12.0119 261.081 13.2712C261.686 14.5304 261.988 16.0548 261.988 17.8442C261.988 19.6337 261.731 21.2432 261.215 22.6729C260.7 24.1026 260.034 25.2577 259.217 26.1382C258.399 27.0187 257.51 27.6957 256.548 28.1691C255.587 28.6425 254.632 28.8792 253.684 28.8792C252.132 28.8792 250.971 28.3869 250.201 27.4022C249.432 26.4175 249.048 24.8742 249.048 22.7723ZM253.128 25.5843C254.652 25.5843 255.892 24.8648 256.847 23.4256C257.802 21.9865 258.279 20.3769 258.279 18.5969C258.279 17.7827 258.118 17.0442 257.795 16.3814C257.472 15.7186 257.05 15.3873 256.527 15.3873C256.005 15.3873 255.521 15.6808 255.075 16.2678C254.628 16.8548 254.285 17.5554 254.044 18.3697C253.804 19.1839 253.608 20.1023 253.457 21.1249C253.237 22.7345 253.128 24.2209 253.128 25.5843Z" fill="#E1E1E6"/>
<defs>
<filter id="filter0_d_1_21" x="5.43036" y="4" width="45.1366" height="41" filterUnits="userSpaceOnUse" color-interpolation-filters="sRGB">
<feFlood flood-opacity="0" result="BackgroundImageFix"/>
<feColorMatrix in="SourceAlpha" type="matrix" values="0 0 0 0 0 0 0 0 0 0 0 0 0 0 0 0 0 0 127 0" result="hardAlpha"/>
<feOffset dy="4"/>
<feGaussianBlur stdDeviation="2"/>
<feComposite in2="hardAlpha" operator="out"/>
<feColorMatrix type="matrix" values="0 0 0 0 0 0 0 0 0 0 0 0 0 0 0 0 0 0 0.25 0"/>
<feBlend mode="normal" in2="BackgroundImageFix" result="effect1_dropShadow_1_21"/>
<feBlend mode="normal" in="SourceGraphic" in2="effect1_dropShadow_1_21" result="shape"/>
</filter>
</defs>
</svg>
