<svg width="16" height="16" viewBox="0 0 16 16" fill="none" xmlns="http://www.w3.org/2000/svg">
<g id="Frame">
<path id="Vector" d="M8 1.5C6.71442 1.5 5.45771 1.88122 4.38879 2.59545C3.31987 3.30968 2.48675 4.32484 1.99478 5.51256C1.50281 6.70028 1.37409 8.00721 1.62489 9.26809C1.8757 10.529 2.49476 11.6872 3.40381 12.5962C4.31285 13.5052 5.47104 14.1243 6.73191 14.3751C7.99279 14.6259 9.29972 14.4972 10.4874 14.0052C11.6752 13.5132 12.6903 12.6801 13.4046 11.6112C14.1188 10.5423 14.5 9.28558 14.5 8C14.4982 6.27665 13.8128 4.62441 12.5942 3.40582C11.3756 2.18722 9.72335 1.50182 8 1.5ZM8 13.5C6.9122 13.5 5.84883 13.1774 4.94436 12.5731C4.03989 11.9687 3.33494 11.1098 2.91866 10.1048C2.50238 9.09977 2.39346 7.9939 2.60568 6.927C2.8179 5.86011 3.34172 4.8801 4.11091 4.11091C4.8801 3.34172 5.86011 2.8179 6.927 2.60568C7.9939 2.39346 9.09976 2.50238 10.1048 2.91866C11.1098 3.33494 11.9687 4.03989 12.5731 4.94436C13.1774 5.84883 13.5 6.9122 13.5 8C13.4983 9.45818 12.9184 10.8562 11.8873 11.8873C10.8562 12.9184 9.45818 13.4983 8 13.5ZM6 8C6 8.41976 6.13207 8.82889 6.37751 9.16942C6.62296 9.50995 6.96932 9.76463 7.36754 9.89737C7.76577 10.0301 8.19566 10.0342 8.59633 9.90903C8.99701 9.78387 9.34814 9.53581 9.6 9.2C9.67965 9.09391 9.79817 9.02381 9.92951 9.00512C10.0608 8.98642 10.1942 9.02066 10.3003 9.10031C10.4064 9.17996 10.4765 9.29849 10.4952 9.42982C10.5139 9.56116 10.4796 9.69454 10.4 9.80062C10.0221 10.3042 9.49539 10.6761 8.89441 10.8637C8.29343 11.0513 7.64866 11.0451 7.05141 10.8459C6.45417 10.6468 5.93472 10.2647 5.56663 9.75397C5.19854 9.24321 5.00047 8.62958 5.00047 8C5.00047 7.37042 5.19854 6.75679 5.56663 6.24603C5.93472 5.73526 6.45417 5.35324 7.05141 5.15407C7.64866 4.95491 8.29343 4.94868 8.89441 5.13628C9.49539 5.32389 10.0221 5.69581 10.4 6.19938C10.4394 6.2519 10.4681 6.31169 10.4845 6.37531C10.5008 6.43893 10.5045 6.50515 10.4952 6.57018C10.4859 6.63521 10.464 6.69778 10.4305 6.75431C10.3971 6.81085 10.3528 6.86025 10.3003 6.89969C10.2478 6.93913 10.188 6.96783 10.1244 6.98416C10.0608 7.0005 9.99454 7.00414 9.92951 6.99488C9.86448 6.98563 9.80191 6.96365 9.74537 6.93021C9.68883 6.89678 9.63944 6.85253 9.6 6.8C9.34814 6.46419 8.99701 6.21613 8.59633 6.09097C8.19566 5.96581 7.76577 5.96989 7.36754 6.10263C6.96932 6.23537 6.62296 6.49005 6.37751 6.83058C6.13207 7.17111 6 7.58024 6 8Z" fill="#323238"/>
</g>
</svg>
