<svg width="32" height="32" viewBox="0 0 32 32" fill="none" xmlns="http://www.w3.org/2000/svg">
<g id="Group">
<path id="Vector" fill-rule="evenodd" clip-rule="evenodd" d="M15.9999 0C7.16454 0 0 7.34436 0 16.4051C0 23.6535 4.58445 29.8026 10.9417 31.9721C11.741 32.1242 12.0346 31.6162 12.0346 31.1829C12.0346 30.7917 12.0198 29.4994 12.0129 28.1286C7.56171 29.121 6.62245 26.193 6.62245 26.193C5.89463 24.2968 4.84596 23.7926 4.84596 23.7926C3.39402 22.7744 4.95538 22.7956 4.95538 22.7956C6.56178 22.9111 7.40803 24.4862 7.40803 24.4862C8.83506 26.9936 11.151 26.2688 12.064 25.8499C12.2076 24.7896 12.6223 24.0656 13.0798 23.656C9.52605 23.2417 5.78998 21.8348 5.78998 15.5488C5.78998 13.7577 6.41526 12.2943 7.43877 11.1452C7.27238 10.7322 6.72472 9.0637 7.5935 6.80403C7.5935 6.80403 8.9368 6.36312 11.9943 8.48561C13.2709 8.12185 14.6399 7.93903 15.9999 7.93278C17.3591 7.93903 18.7289 8.12131 20.0078 8.48507C23.0616 6.36258 24.4033 6.80348 24.4033 6.80348C25.2742 9.06289 24.7266 10.7317 24.5604 11.1446C25.5863 12.2938 26.2071 13.7572 26.2071 15.5483C26.2071 21.8492 22.4641 23.2363 18.9013 23.6427C19.4755 24.1518 19.9869 25.1504 19.9869 26.6807C19.9869 28.8757 19.9683 30.6423 19.9683 31.1826C19.9683 31.6192 20.2566 32.1307 21.0673 31.9696C27.4209 29.798 32 23.6508 32 16.4051C31.9997 7.3449 24.836 0 15.9999 0Z" fill="#121214"/>
<path id="Vector_2" d="M6.05995 23.5538C6.02471 23.6353 5.89965 23.6598 5.78572 23.6041C5.66915 23.5508 5.60423 23.4397 5.64186 23.358C5.6763 23.2737 5.80162 23.2507 5.9174 23.3069C6.03398 23.3604 6.10022 23.4726 6.05968 23.5541L6.05995 23.5538ZM6.70802 24.2952C6.63198 24.3677 6.48281 24.334 6.3816 24.2191C6.27668 24.105 6.25707 23.9521 6.3347 23.8785C6.41366 23.8062 6.55832 23.8404 6.66324 23.9545C6.76763 24.0703 6.7883 24.2218 6.70828 24.2955L6.70802 24.2952ZM7.33913 25.2398C7.2411 25.3098 7.08054 25.2444 6.98145 25.0985C6.88342 24.9523 6.88342 24.7771 6.9841 24.7073C7.08293 24.6372 7.2411 24.7005 7.34178 24.845C7.43928 24.9931 7.43928 25.1686 7.33913 25.2398ZM8.20314 26.1528C8.11571 26.252 7.92865 26.2253 7.79193 26.0903C7.65231 25.958 7.61336 25.7698 7.70106 25.6709C7.79008 25.5715 7.97793 25.5992 8.11544 25.7334C8.25507 25.8654 8.2972 26.0539 8.20367 26.1525L8.20314 26.1528ZM9.39542 26.6828C9.35647 26.8113 9.17683 26.8697 8.99534 26.8148C8.81438 26.7586 8.69595 26.6084 8.73304 26.4785C8.77013 26.3489 8.9511 26.2884 9.13365 26.3468C9.31461 26.4027 9.43304 26.5521 9.39542 26.6828ZM10.7051 26.7809C10.7096 26.9162 10.5559 27.0281 10.3659 27.0308C10.1744 27.0354 10.0194 26.9257 10.0175 26.7926C10.0175 26.6559 10.168 26.5454 10.3593 26.5416C10.5493 26.538 10.7053 26.6467 10.7053 26.7806L10.7051 26.7809ZM11.9233 26.5684C11.9461 26.7002 11.8139 26.8358 11.625 26.8719C11.4395 26.9072 11.2673 26.8252 11.2435 26.6945C11.2207 26.5592 11.3553 26.4237 11.5407 26.3886C11.7299 26.3552 11.8995 26.4345 11.9233 26.5684Z" fill="#121214"/>
</g>
</svg>
