<svg width="345" height="338" viewBox="0 0 345 338" fill="none" xmlns="http://www.w3.org/2000/svg">
<g clip-path="url(#clip0_421_91)">
<path d="M344.609 331.974H0V337.717H344.609V331.974Z" fill="#364F6B"/>
<path d="M153.508 95.4274H159.622L191.102 20.6766H184.988L153.508 95.4274Z" fill="#3FC1C9"/>
<path d="M203.633 20.6766V29.4864L232.36 58.0235L203.633 86.5796V95.3704L241.227 58.0235L203.633 20.6766Z" fill="#3FC1C9"/>
<path d="M140.977 95.3704V86.5796L112.25 58.0235L140.977 29.4864V20.6766L103.383 58.0235L140.977 95.3704Z" fill="#3FC1C9"/>
<path d="M53.7628 118.316C58.7954 118.316 63.9303 118.776 69.1674 119.697C74.4046 120.617 79.4985 122.019 84.4493 123.901C89.4001 125.783 94.0644 128.146 98.4423 130.99C102.82 133.833 106.646 137.158 109.919 140.963C113.192 144.768 115.78 149.064 117.683 153.851C119.585 158.638 120.536 163.937 120.536 169.747C120.536 175.556 119.513 180.937 117.468 185.888C115.422 190.838 112.558 195.114 108.875 198.714C105.193 202.315 100.795 205.138 95.6803 207.184C90.566 209.23 84.9402 210.253 78.8028 210.252C75.8978 210.252 72.8905 210.038 69.7809 209.608C66.6714 209.178 63.5618 208.514 60.4521 207.613C57.3424 206.713 54.2841 205.598 51.2769 204.268C48.2698 202.939 45.3956 201.353 42.6542 199.512C39.4219 202.703 35.6884 205.189 31.4536 206.969C27.2189 208.749 22.7489 209.638 18.0436 209.638C15.5068 209.638 13.1338 209.352 10.9243 208.779C8.71491 208.206 6.80209 207.388 5.18588 206.324C3.56967 205.261 2.30134 203.972 1.38088 202.458C0.460424 200.944 0.000130929 199.266 0 197.425C0 195.829 0.398924 194.336 1.19677 192.945C1.99462 191.554 3.11977 190.326 4.57222 189.262C6.02467 188.199 7.76362 187.36 9.78905 186.746C11.8145 186.132 14.0341 185.826 16.4479 185.826C23.5671 185.826 31.9957 188.444 41.7335 193.681C43.5338 191.431 45.0067 188.894 46.1523 186.071C47.4207 182.921 48.4129 179.678 49.1289 176.343C49.845 173.009 50.4791 169.684 51.0315 166.37C51.5839 163.056 52.1567 159.824 52.75 156.674C53.3432 153.523 54.1615 150.557 55.2049 147.775C56.2482 144.992 57.6189 142.446 59.3169 140.134C61.0149 137.822 63.2345 135.848 65.9757 134.211C66.3849 134.007 66.7531 133.904 67.0804 133.904C67.6532 133.904 68.1954 134.109 68.7068 134.518C69.2182 134.927 69.474 135.5 69.474 136.237C69.474 137.096 69.0853 137.75 68.3079 138.201C66.1394 139.469 64.3698 141.054 62.9991 142.957C61.6285 144.859 60.493 146.997 59.5929 149.37C58.6927 151.743 57.9767 154.301 57.4448 157.042C56.913 159.783 56.4015 162.647 55.9105 165.634C55.5014 168.089 55.0513 170.657 54.5603 173.336C54.0693 176.016 53.4556 178.676 52.7191 181.315C51.9826 183.954 51.0518 186.532 49.9267 189.048C48.8015 191.564 47.4206 193.886 45.7839 196.014L46.0907 196.198C51.287 199.307 56.6878 201.66 62.2932 203.256C67.8985 204.851 73.3812 205.649 78.7412 205.649C84.5511 205.649 89.7576 204.688 94.3606 202.765C98.9635 200.842 102.861 198.254 106.052 195.001C109.243 191.748 111.678 187.954 113.355 183.617C115.033 179.28 115.872 174.677 115.872 169.808C115.872 164.939 115.053 160.387 113.417 156.152C111.78 151.918 109.54 148.061 106.696 144.584C103.853 141.106 100.477 138.017 96.5697 135.316C92.6622 132.616 88.448 130.355 83.927 128.535C79.406 126.714 74.6598 125.323 69.6883 124.362C64.7169 123.4 59.7354 122.919 54.7439 122.919C48.0338 122.919 41.9068 123.482 36.3627 124.607C30.8187 125.732 26.0521 127.379 22.0628 129.548C18.0735 131.716 14.9742 134.376 12.7648 137.526C10.5553 140.677 9.45062 144.257 9.45058 148.267C9.45058 150.558 9.78814 152.583 10.4632 154.342C11.1383 156.102 11.9976 157.626 13.0409 158.915C14.0842 160.204 15.2196 161.298 16.4471 162.198C17.6746 163.098 18.8203 163.825 19.8842 164.377C20.948 164.929 21.8686 165.328 22.646 165.574L23.9348 166.003C24.4667 166.126 24.8861 166.402 25.1929 166.832C25.4998 167.261 25.6532 167.742 25.6532 168.274C25.6532 168.97 25.4077 169.502 24.9168 169.87C24.4258 170.238 23.8939 170.422 23.3211 170.422C22.5028 170.422 21.4799 170.228 20.2524 169.839C19.025 169.45 17.7259 168.857 16.3554 168.059C14.9848 167.261 13.6141 166.259 12.2434 165.052C10.8726 163.845 9.63497 162.423 8.53042 160.787C7.42588 159.15 6.53598 157.289 5.8607 155.202C5.18543 153.115 4.84787 150.804 4.84804 148.267C4.84804 143.643 6.02435 139.48 8.37698 135.777C10.7296 132.075 14.0539 128.934 18.35 126.357C22.646 123.779 27.7911 121.795 33.7852 120.404C39.7794 119.013 46.4391 118.316 53.7628 118.316ZM38.419 197.179C34.1638 194.928 30.2155 193.23 26.5741 192.085C22.9326 190.939 19.598 190.366 16.5703 190.366C14.8518 190.366 13.2664 190.561 11.8139 190.949C10.3614 191.338 9.1032 191.86 8.03935 192.514C6.97549 193.169 6.13673 193.926 5.52306 194.785C4.9094 195.644 4.60253 196.534 4.60247 197.455C4.6024 198.375 4.87858 199.286 5.43099 200.186C5.98341 201.086 6.82217 201.884 7.94728 202.579C9.07239 203.275 10.4737 203.848 12.1514 204.298C13.829 204.748 15.7929 204.973 18.0431 204.973C21.8892 204.973 25.5613 204.288 29.0596 202.917C32.5578 201.546 35.6777 199.634 38.419 197.179ZM174.607 191.471C174.444 191.798 174.106 192.484 173.595 193.527C173.083 194.57 172.429 195.767 171.631 197.117C170.833 198.468 169.902 199.879 168.838 201.352C167.774 202.825 166.588 204.175 165.279 205.403C163.969 206.63 162.558 207.643 161.044 208.441C159.53 209.239 157.934 209.638 156.257 209.638C153.884 209.638 151.889 208.881 150.273 207.367C148.657 205.853 147.481 203.95 146.744 201.659C145.353 203.991 143.696 205.843 141.773 207.213C139.85 208.584 137.927 209.269 136.004 209.269C134.49 209.269 133.12 208.993 131.892 208.441C130.665 207.889 129.621 207.111 128.762 206.109C127.903 205.106 127.238 203.93 126.767 202.58C126.297 201.23 126.062 199.757 126.062 198.161C126.062 194.97 126.604 192.157 127.688 189.722C128.772 187.288 130.153 185.252 131.831 183.615C133.508 181.979 135.36 180.751 137.385 179.933C139.41 179.115 141.364 178.706 143.246 178.706C144.515 178.706 145.681 178.879 146.744 179.227C147.808 179.575 148.719 179.953 149.475 180.363C150.232 180.772 150.815 181.14 151.225 181.467L151.9 182.081C152.35 182.613 152.575 183.176 152.575 183.769C152.575 184.362 152.35 184.894 151.9 185.364C151.45 185.835 150.908 186.07 150.273 186.07C149.639 186.07 149.097 185.845 148.647 185.395L148.095 184.904C147.808 184.7 147.419 184.475 146.928 184.229C146.438 183.984 145.854 183.769 145.179 183.585C144.504 183.401 143.737 183.308 142.878 183.308C141.61 183.308 140.259 183.595 138.827 184.168C137.395 184.741 136.086 185.63 134.899 186.837C133.713 188.044 132.721 189.558 131.923 191.379C131.125 193.2 130.726 195.358 130.726 197.854C130.726 198.631 130.808 199.419 130.972 200.217C131.135 201.014 131.422 201.741 131.831 202.395C132.24 203.05 132.792 203.582 133.488 203.991C134.183 204.4 135.043 204.605 136.065 204.605C136.802 204.605 137.651 204.359 138.612 203.868C139.574 203.377 140.495 202.62 141.374 201.597C142.254 200.574 143.052 199.286 143.768 197.731C144.484 196.176 144.985 194.335 145.271 192.207C145.353 191.634 145.619 191.154 146.069 190.765C146.519 190.376 147.041 190.182 147.634 190.182C148.228 190.182 148.739 190.407 149.169 190.857C149.598 191.307 149.833 191.819 149.874 192.391C149.915 193.169 149.997 194.263 150.12 195.675C150.243 197.086 150.519 198.488 150.948 199.879C151.378 201.27 152.022 202.477 152.882 203.5C153.741 204.523 154.927 205.034 156.441 205.034C157.423 205.034 158.395 204.768 159.356 204.236C160.318 203.704 161.259 202.999 162.18 202.119C163.1 201.239 163.98 200.237 164.819 199.112C165.657 197.986 166.425 196.851 167.12 195.705C167.816 194.56 168.429 193.455 168.961 192.391L170.312 189.629C170.516 189.179 170.813 188.832 171.201 188.586C171.59 188.341 172.01 188.218 172.46 188.218C173.155 188.218 173.718 188.474 174.147 188.985C174.577 189.496 174.792 190.039 174.792 190.611C174.792 190.898 174.73 191.185 174.607 191.471ZM193.203 209.453C194.635 208.021 196.087 206.558 197.56 205.065C199.033 203.572 200.465 202.007 201.856 200.37C203.248 198.734 204.547 197.025 205.753 195.245C206.96 193.465 208.034 191.573 208.976 189.568C209.18 189.118 209.467 188.781 209.835 188.556C210.203 188.331 210.612 188.218 211.062 188.218C211.758 188.218 212.32 188.464 212.75 188.955C213.18 189.446 213.394 189.998 213.394 190.612C213.394 190.939 213.333 191.246 213.21 191.532C211.942 194.192 210.489 196.626 208.853 198.836C207.216 201.045 205.498 203.142 203.698 205.127C201.897 207.111 200.077 209.034 198.235 210.896C196.394 212.757 194.635 214.629 192.957 216.511C192.794 219.334 192.794 222.168 192.957 225.011C193.121 227.855 193.203 230.872 193.203 234.064C193.203 236.682 193.121 239.301 192.957 241.92C192.794 244.538 192.528 247.044 192.159 249.438C191.791 251.831 191.29 254.072 190.656 256.158C190.022 258.245 189.213 260.055 188.231 261.59C187.25 263.124 186.104 264.331 184.794 265.211C183.485 266.09 181.951 266.53 180.192 266.53C177.287 266.53 175.057 265.528 173.502 263.523C171.947 261.518 171.17 258.715 171.17 255.115C171.17 253.151 171.385 251.044 171.814 248.793C172.244 246.543 172.847 244.221 173.625 241.827C174.402 239.434 175.333 237.01 176.417 234.555C177.501 232.1 178.678 229.706 179.946 227.374C181.214 225.042 182.564 222.822 183.997 220.715C185.429 218.608 186.881 216.695 188.354 214.977L188.661 208.839C188.743 206.753 188.845 204.809 188.968 203.009C187.904 204.891 186.585 206.405 185.009 207.551C183.434 208.696 181.705 209.269 179.823 209.269C176.714 209.269 174.279 208.226 172.52 206.139C170.761 204.052 169.881 201.188 169.881 197.547C169.881 194.887 170.137 192.463 170.648 190.274C171.159 188.085 171.712 186.203 172.305 184.628C172.898 183.052 173.44 181.845 173.931 181.007C174.422 180.168 174.668 179.769 174.668 179.81C175.118 179.114 175.752 178.767 176.571 178.767C177.266 178.767 177.829 179.002 178.258 179.472C178.688 179.943 178.903 180.485 178.903 181.099C178.903 181.549 178.78 181.958 178.534 182.326C178.575 182.285 178.381 182.623 177.951 183.339C177.522 184.055 177.051 185.088 176.54 186.438C176.028 187.789 175.558 189.405 175.128 191.287C174.699 193.169 174.484 195.235 174.484 197.486C174.484 199.736 174.893 201.495 175.711 202.764C176.53 204.032 177.859 204.666 179.7 204.666C182.033 204.666 184.14 202.938 186.022 199.48C187.904 196.023 189.5 191.001 190.809 184.413C190.891 183.881 191.136 183.442 191.545 183.094C191.954 182.746 192.466 182.572 193.08 182.572C193.693 182.572 194.225 182.797 194.675 183.247C195.125 183.697 195.35 184.25 195.35 184.904C195.35 185.027 195.269 185.753 195.105 187.083C194.941 188.413 194.747 190.182 194.522 192.392C194.297 194.601 194.062 197.169 193.816 200.094C193.571 203.02 193.366 206.139 193.203 209.453ZM188.293 222.464C186.452 225.124 184.764 227.926 183.23 230.872C181.695 233.818 180.376 236.744 179.271 239.649C178.166 242.554 177.307 245.336 176.693 247.996C176.08 250.655 175.773 253.039 175.773 255.146C175.773 257.253 176.12 258.91 176.816 260.117C177.512 261.324 178.616 261.927 180.13 261.927C181.48 261.927 182.677 261.262 183.721 259.933C184.764 258.603 185.644 256.711 186.36 254.256C187.076 251.801 187.618 248.824 187.986 245.326C188.354 241.828 188.538 237.91 188.538 233.573C188.538 231.814 188.508 230.034 188.446 228.234C188.385 226.433 188.334 224.51 188.293 222.464ZM256.417 191.471C256.254 191.798 255.916 192.484 255.405 193.527C254.893 194.57 254.239 195.767 253.441 197.117C252.643 198.468 251.712 199.879 250.648 201.352C249.585 202.825 248.398 204.175 247.089 205.403C245.779 206.63 244.368 207.643 242.854 208.441C241.34 209.239 239.744 209.638 238.067 209.638C235.694 209.638 233.699 208.881 232.083 207.367C230.467 205.853 229.291 203.95 228.554 201.659C227.163 203.991 225.506 205.843 223.583 207.213C221.66 208.584 219.737 209.269 217.814 209.269C216.3 209.269 214.93 208.993 213.702 208.441C212.475 207.889 211.431 207.111 210.572 206.109C209.713 205.106 209.048 203.93 208.577 202.58C208.107 201.23 207.872 199.757 207.872 198.161C207.872 194.97 208.414 192.157 209.498 189.722C210.582 187.288 211.963 185.252 213.641 183.615C215.318 181.979 217.17 180.751 219.195 179.933C221.22 179.115 223.174 178.706 225.056 178.706C226.325 178.706 227.491 178.879 228.554 179.227C229.618 179.575 230.529 179.953 231.286 180.363C232.042 180.772 232.625 181.14 233.035 181.467L233.71 182.081C234.16 182.613 234.385 183.176 234.385 183.769C234.385 184.362 234.16 184.894 233.71 185.364C233.26 185.835 232.718 186.07 232.083 186.07C231.449 186.07 230.907 185.845 230.457 185.395L229.905 184.904C229.618 184.7 229.23 184.475 228.739 184.229C228.248 183.984 227.665 183.769 226.989 183.585C226.314 183.401 225.547 183.308 224.688 183.308C223.42 183.308 222.069 183.595 220.637 184.168C219.205 184.741 217.896 185.63 216.709 186.837C215.523 188.044 214.531 189.558 213.733 191.379C212.935 193.2 212.536 195.358 212.536 197.854C212.536 198.631 212.618 199.419 212.782 200.217C212.945 201.014 213.232 201.741 213.641 202.395C214.05 203.05 214.602 203.582 215.298 203.991C215.993 204.4 216.853 204.605 217.876 204.605C218.612 204.605 219.461 204.359 220.422 203.868C221.384 203.377 222.305 202.62 223.184 201.597C224.064 200.574 224.862 199.286 225.578 197.731C226.294 196.176 226.795 194.335 227.081 192.207C227.163 191.634 227.429 191.154 227.879 190.765C228.329 190.376 228.851 190.182 229.444 190.182C230.038 190.182 230.549 190.407 230.979 190.857C231.408 191.307 231.644 191.819 231.684 192.391C231.725 193.169 231.807 194.263 231.93 195.675C232.053 197.086 232.329 198.488 232.758 199.879C233.188 201.27 233.832 202.477 234.692 203.5C235.551 204.523 236.737 205.034 238.251 205.034C239.233 205.034 240.205 204.768 241.167 204.236C242.128 203.704 243.069 202.999 243.99 202.119C244.91 201.239 245.79 200.237 246.629 199.112C247.467 197.986 248.235 196.851 248.93 195.705C249.626 194.56 250.239 193.455 250.771 192.391L252.122 189.629C252.326 189.179 252.623 188.832 253.011 188.586C253.4 188.341 253.82 188.218 254.27 188.218C254.965 188.218 255.528 188.474 255.957 188.985C256.387 189.496 256.602 190.039 256.602 190.611C256.602 190.898 256.54 191.185 256.417 191.471ZM265.807 203.07C266.461 201.72 267.218 200.237 268.078 198.621C268.937 197.005 269.857 195.368 270.839 193.711C271.821 192.054 272.854 190.407 273.939 188.77C275.023 187.134 276.158 185.589 277.345 184.137C278.532 182.684 279.728 181.641 280.935 181.007C282.142 180.373 283.278 180.055 284.342 180.056C286.469 180.056 288.044 180.833 289.067 182.388C290.09 183.942 290.602 185.865 290.602 188.157C290.602 188.689 290.581 189.323 290.54 190.059L290.172 195.092C290.09 195.992 290.049 196.831 290.049 197.608C290.049 198.59 290.1 199.531 290.203 200.431C290.305 201.331 290.499 202.119 290.786 202.794C291.072 203.469 291.481 204.001 292.013 204.39C292.545 204.779 293.241 204.973 294.1 204.973C295.655 204.973 297.169 204.369 298.642 203.162C300.114 201.955 301.475 200.523 302.723 198.866C303.971 197.209 305.055 195.521 305.976 193.803C306.896 192.085 307.582 190.694 308.032 189.63C308.236 189.18 308.533 188.832 308.922 188.586C309.31 188.341 309.73 188.218 310.18 188.218C310.875 188.218 311.438 188.474 311.867 188.985C312.297 189.497 312.512 190.039 312.512 190.612C312.512 190.898 312.45 191.185 312.328 191.471L311.346 193.496C310.855 194.519 310.21 195.695 309.412 197.025C308.615 198.355 307.684 199.767 306.62 201.26C305.556 202.754 304.38 204.114 303.091 205.341C301.803 206.569 300.411 207.592 298.918 208.41C297.425 209.228 295.86 209.638 294.223 209.637C292.382 209.637 290.888 209.279 289.743 208.563C288.597 207.847 287.697 206.906 287.042 205.74C286.388 204.574 285.948 203.285 285.723 201.874C285.498 200.462 285.385 199.04 285.385 197.608C285.385 196.995 285.416 196.299 285.477 195.522C285.539 194.744 285.621 193.926 285.723 193.067C285.825 192.207 285.907 191.348 285.968 190.489C286.03 189.63 286.06 188.812 286.06 188.034C286.06 186.725 285.856 185.835 285.447 185.364C285.038 184.894 284.669 184.659 284.342 184.659C283.687 184.659 282.941 185.037 282.102 185.794C281.263 186.551 280.383 187.543 279.463 188.771C278.542 189.998 277.601 191.379 276.64 192.913C275.678 194.448 274.778 195.972 273.939 197.486C273.101 199 272.323 200.442 271.607 201.813C270.891 203.183 270.329 204.319 269.919 205.219C269.101 206.937 268.283 208.093 267.464 208.687C266.646 209.28 265.807 209.576 264.948 209.576C263.762 209.576 262.81 209.218 262.094 208.502C261.378 207.786 261.02 206.774 261.02 205.464C261.02 205.178 261.061 204.605 261.143 203.746L262.186 192.944C262.309 191.635 262.411 190.408 262.493 189.262C262.575 188.116 262.616 187.155 262.616 186.377C262.616 185.355 262.575 184.373 262.493 183.432C262.411 182.491 262.248 181.918 262.002 181.713C261.634 181.836 260.979 182.603 260.038 184.015C259.097 185.426 257.89 187.911 256.417 191.471C256.213 191.921 255.906 192.269 255.497 192.515C255.088 192.76 254.658 192.883 254.208 192.883C253.512 192.883 252.96 192.648 252.551 192.177C252.142 191.707 251.937 191.164 251.937 190.551C251.937 190.264 251.999 189.957 252.122 189.629C253.963 185.251 255.691 182.03 257.307 179.964C258.924 177.898 260.529 176.865 262.125 176.864C263.066 176.864 263.864 177.1 264.519 177.57C265.173 178.041 265.695 178.665 266.084 179.442C266.472 180.22 266.759 181.079 266.943 182.02C267.127 182.961 267.219 183.922 267.219 184.904C267.219 185.641 267.168 186.786 267.066 188.341C266.963 189.896 266.83 191.553 266.667 193.312L266.237 198.652C266.073 200.411 265.93 201.884 265.807 203.07ZM315.457 201.843C316.317 203.03 317.421 203.981 318.772 204.697C320.122 205.413 321.789 205.771 323.773 205.771C325.758 205.771 327.568 205.29 329.205 204.329C330.841 203.367 332.335 202.109 333.685 200.554C335.035 198.999 336.242 197.26 337.306 195.337C338.37 193.414 339.331 191.491 340.191 189.568C340.395 189.118 340.682 188.781 341.05 188.556C341.418 188.331 341.827 188.218 342.277 188.218C342.973 188.218 343.535 188.464 343.965 188.955C344.395 189.446 344.609 189.978 344.609 190.55C344.609 190.755 344.589 190.929 344.548 191.072C344.507 191.215 344.446 191.369 344.364 191.532C341.541 197.751 338.462 202.436 335.127 205.587C331.793 208.737 328.018 210.353 323.804 210.435C321.104 210.435 318.772 209.914 316.808 208.87C314.844 207.827 313.227 206.477 311.959 204.819C310.691 203.162 309.75 201.29 309.136 199.204C308.522 197.117 308.215 195.031 308.215 192.944C308.215 190.857 308.471 188.934 308.982 187.175C309.494 185.416 310.23 183.881 311.192 182.572C312.153 181.263 313.299 180.24 314.629 179.503C315.959 178.767 317.422 178.399 319.017 178.399C319.958 178.399 320.889 178.593 321.81 178.982C322.73 179.37 323.559 179.923 324.295 180.639C325.032 181.355 325.625 182.224 326.075 183.247C326.525 184.27 326.75 185.436 326.75 186.745C326.75 188.423 326.464 189.998 325.891 191.471C325.318 192.944 324.53 194.315 323.528 195.583C322.526 196.852 321.329 198.018 319.938 199.082C318.547 200.145 317.053 201.066 315.457 201.843ZM313.616 197.854C314.885 197.322 316.041 196.647 317.084 195.828C318.127 195.01 319.017 194.11 319.754 193.128C320.49 192.146 321.063 191.113 321.472 190.029C321.881 188.944 322.086 187.85 322.086 186.745C322.086 185.518 321.779 184.587 321.165 183.953C320.551 183.318 319.835 183.001 319.017 183.001C317.912 183.001 316.971 183.308 316.194 183.922C315.417 184.536 314.782 185.334 314.291 186.316C313.801 187.298 313.442 188.392 313.217 189.599C312.992 190.806 312.88 192.003 312.88 193.189C312.88 193.926 312.952 194.703 313.095 195.521C313.238 196.34 313.412 197.117 313.616 197.854Z" fill="#364F6B"/>
<path d="M45.4533 299.073L45.1693 298.931C43.6923 300.882 41.9312 301.857 39.8861 301.857C38.3712 301.857 37.0883 301.256 36.0374 300.053C34.9864 298.851 34.4609 297.227 34.4609 295.182C34.4609 292.644 35.3509 290.334 37.1309 288.251C38.002 287.229 39.1666 286.4 40.6246 285.766C42.0827 285.132 43.7112 284.814 45.5101 284.814C45.851 284.814 46.4569 284.852 47.328 284.928C47.3659 284.53 47.4511 284.048 47.5836 283.479L45.993 281.207C48.36 279.825 50.2252 279.134 51.5886 279.134C52.365 279.134 52.9141 279.29 53.2361 279.602C53.558 279.915 53.7189 280.502 53.7189 281.363C53.7189 282.225 53.2976 284.653 52.4549 288.649C51.6123 292.644 51.191 295.48 51.191 297.156C51.191 298.832 51.4845 299.935 52.0715 300.465C51.0111 301.393 49.908 301.857 48.7624 301.857C47.6168 301.857 46.7789 301.568 46.2486 300.991C45.7184 300.413 45.4533 299.774 45.4533 299.073ZM39.8009 294.103C39.8009 295.182 40.0802 296.034 40.6388 296.659C41.1974 297.284 41.8933 297.596 42.7265 297.596C43.8059 297.596 44.7906 297.085 45.6806 296.062C45.9835 292.692 46.4096 289.776 46.9587 287.314C44.7811 287.314 43.0437 288.015 41.7466 289.416C40.4495 290.817 39.8009 292.379 39.8009 294.103ZM83.4779 297.653L83.1939 297.511C82.6826 298.874 81.9488 299.94 80.9926 300.707C80.0363 301.473 78.9711 301.857 77.7971 301.857C76.1875 301.857 74.8999 301.251 73.9341 300.039C72.9684 298.827 72.4855 297.208 72.4855 295.182C72.4855 292.039 73.5412 289.406 75.6526 287.286C77.764 285.165 80.3913 284.104 83.5347 284.104C84.349 284.104 85.097 284.18 85.7787 284.332C85.8923 284.862 85.9585 285.326 85.9775 285.723C86.9243 285.117 87.8995 284.814 88.9031 284.814C90.2854 284.814 90.9766 285.562 90.9766 287.058C90.9766 287.589 90.6784 289.189 90.0819 291.859C89.4854 294.529 89.1871 296.507 89.1871 297.795C89.1871 299.083 89.4807 299.973 90.0677 300.465C89.0073 301.393 87.9042 301.857 86.7586 301.857C85.613 301.857 84.7798 301.516 84.259 300.834C83.7383 300.153 83.4779 299.092 83.4779 297.653ZM77.8255 293.79C77.8255 294.718 78.0196 295.433 78.4078 295.935C78.796 296.436 79.3499 296.687 80.0694 296.687C80.789 296.687 81.4991 296.422 82.1997 295.892C82.9004 295.362 83.4874 294.633 83.9608 293.705C84.1312 291.792 84.5005 289.53 85.0686 286.916C83.156 286.916 81.4707 287.608 80.0126 288.99C78.5545 290.372 77.8255 291.972 77.8255 293.79ZM118.605 300.579C117.715 300.901 116.825 301.062 115.935 301.062C115.045 301.062 114.297 300.796 113.691 300.266C113.085 299.736 112.735 299.016 112.64 298.108C112.546 297.199 112.461 295.878 112.385 294.145C112.309 292.413 112.233 291.186 112.158 290.467C111.911 288.062 111.154 286.348 109.885 285.326C110.775 284.511 111.892 284.104 113.237 284.104C113.975 284.104 114.619 284.298 115.168 284.687C115.718 285.075 116.158 285.586 116.489 286.22C116.821 286.855 117.09 287.674 117.299 288.677C117.621 290.344 117.782 292.597 117.782 295.438C117.782 296.138 117.753 296.962 117.696 297.909H119.344C121.294 292.644 122.269 289.056 122.269 287.144C122.269 286.5 122.127 285.894 121.843 285.326C123.169 284.511 124.324 284.104 125.309 284.104C127.145 284.104 128.064 285.165 128.064 287.286C128.064 288.971 127.287 291.934 125.735 296.176C125.451 296.952 125.29 297.407 125.252 297.539C122.847 304.394 119.429 307.822 114.998 307.822C113.654 307.822 112.546 307.533 111.675 306.955C110.804 306.378 110.368 305.62 110.368 304.683C110.368 303.746 110.718 302.766 111.419 301.743C112.328 303.031 113.464 303.675 114.828 303.675C115.604 303.675 116.328 303.419 117 302.908C117.673 302.397 118.208 301.62 118.605 300.579ZM156.459 287.882C155.759 288.09 155.2 288.389 154.784 288.777C154.367 289.165 153.998 289.719 153.676 290.438C156.876 290.912 159.129 291.594 160.436 292.484C161.743 293.374 162.396 294.642 162.396 296.29C162.396 297.331 162.102 298.235 161.515 299.002C160.928 299.769 160.19 300.351 159.3 300.749C157.558 301.488 155.844 301.857 154.159 301.857C149.368 301.857 146.972 300.825 146.972 298.761C146.972 297.719 147.436 296.678 148.364 295.636C148.838 296.299 149.553 296.867 150.509 297.341C151.465 297.814 152.398 298.051 153.307 298.051C154.878 298.051 155.825 297.36 156.147 295.977C153.269 295.636 151.186 294.993 149.898 294.046C148.61 293.099 147.967 291.764 147.967 290.041C147.967 288.677 148.416 287.532 149.316 286.604C150.215 285.676 151.333 285.027 152.668 284.658C154.003 284.289 155.508 284.104 157.184 284.104C158.86 284.104 160.242 284.422 161.331 285.056C162.42 285.69 162.964 286.462 162.964 287.371C162.964 288.28 162.647 288.98 162.012 289.473C161.378 289.965 160.687 290.211 159.939 290.211C159.191 290.211 158.509 290.012 157.894 289.615C157.278 289.217 156.8 288.64 156.459 287.882ZM184.372 295.949C183.179 295.949 182.583 295.258 182.583 293.875C182.583 292.872 182.848 291.792 183.378 290.637C183.776 290.77 184.358 290.836 185.125 290.836C185.892 290.836 187.123 290.533 188.817 289.927C190.512 289.321 191.795 289.018 192.666 289.018C193.859 289.018 194.456 289.709 194.456 291.092C194.456 292.095 194.191 293.175 193.66 294.33C193.263 294.197 192.68 294.131 191.913 294.131C191.147 294.131 189.916 294.434 188.221 295.04C186.526 295.646 185.243 295.949 184.372 295.949ZM230.18 284.104C232.471 284.104 233.616 285.25 233.616 287.541C233.616 288.526 233.337 290.192 232.778 292.54C232.22 294.888 231.941 296.659 231.941 297.852C231.941 299.045 232.139 299.916 232.537 300.465C231.533 301.393 230.473 301.857 229.356 301.857C227.178 301.857 226.089 300.683 226.089 298.335C226.089 297.464 226.373 295.987 226.941 293.904C227.51 291.821 227.794 290.467 227.794 289.842C227.794 288.99 227.472 288.564 226.828 288.564C226.298 288.564 225.692 288.796 225.01 289.26C224.328 289.724 223.67 290.348 223.036 291.134C222.402 291.92 221.867 292.914 221.431 294.117C220.996 295.319 220.778 296.541 220.778 297.781C220.778 299.021 220.977 299.916 221.374 300.465C220.371 301.393 219.31 301.857 218.193 301.857C216.015 301.857 214.926 300.683 214.926 298.335C214.926 296.934 215.305 294.093 216.063 289.814C216.706 286.045 217.076 283.934 217.17 283.479L215.58 281.207C217.947 279.825 219.812 279.134 221.175 279.134C221.952 279.134 222.501 279.29 222.823 279.602C223.145 279.915 223.306 280.431 223.306 281.15C223.306 282.514 223.173 284 222.908 285.61C222.643 287.219 222.397 288.403 222.17 289.16L222.454 289.302C224.48 285.837 227.055 284.104 230.18 284.104ZM258.149 301.857C256.483 301.857 255.318 301.45 254.655 300.636C253.993 299.821 253.661 298.794 253.661 297.554C253.661 296.313 253.87 294.614 254.286 292.455C254.703 290.296 254.911 288.734 254.911 287.768C254.911 286.803 254.712 286.045 254.314 285.496C256.076 284.568 257.562 284.104 258.774 284.104C259.55 284.104 260.114 284.261 260.464 284.573C260.814 284.885 260.989 285.392 260.989 286.093C260.989 286.793 260.701 288.512 260.123 291.248C259.546 293.984 259.257 295.674 259.257 296.318C259.257 296.962 259.437 297.468 259.796 297.838C260.156 298.207 260.63 298.392 261.217 298.392C261.804 298.392 262.429 298.16 263.091 297.696C263.754 297.232 264.294 296.574 264.71 295.722C264.976 294.188 265.496 291.764 266.273 288.45L264.568 286.178C266.481 284.795 268.299 284.104 270.022 284.104C270.874 284.104 271.485 284.261 271.854 284.573C272.223 284.885 272.408 285.359 272.408 285.993C272.408 286.628 272.062 288.441 271.371 291.433C270.68 294.424 270.334 296.55 270.334 297.809C270.334 299.069 270.628 299.954 271.215 300.465C270.155 301.393 269.042 301.857 267.877 301.857C266.713 301.857 265.875 301.601 265.364 301.09C264.852 300.579 264.597 299.906 264.597 299.073L264.313 298.931C263.688 299.84 262.822 300.555 261.714 301.076C260.606 301.597 259.418 301.857 258.149 301.857ZM292.311 295.75C292.311 294.159 292.926 290.069 294.157 283.479L292.566 281.207C293.74 280.506 294.73 279.986 295.535 279.645C296.339 279.304 297.144 279.134 297.949 279.134C298.754 279.134 299.345 279.295 299.724 279.616C300.103 279.938 300.292 280.45 300.292 281.15C300.292 282.362 299.923 284.739 299.184 288.28L299.469 288.422C300.832 285.714 302.82 284.36 305.433 284.36C306.91 284.36 308.065 284.99 308.899 286.249C309.732 287.508 310.148 289.032 310.148 290.822C310.148 292.611 309.793 294.221 309.083 295.651C308.373 297.08 307.455 298.235 306.328 299.116C305.201 299.996 303.975 300.673 302.65 301.147C301.324 301.62 300.008 301.857 298.702 301.857C296.562 301.857 294.962 301.365 293.901 300.38C292.841 299.395 292.311 297.852 292.311 295.75ZM297.935 298.562C300.037 298.562 301.746 297.842 303.062 296.403C304.378 294.964 305.036 293.355 305.036 291.575C305.036 290.76 304.813 290.022 304.368 289.359C303.923 288.696 303.341 288.365 302.621 288.365C301.902 288.365 301.234 288.658 300.619 289.245C300.003 289.832 299.53 290.533 299.199 291.347C298.867 292.162 298.597 293.08 298.389 294.103C298.086 295.712 297.935 297.199 297.935 298.562Z" fill="#3FC1C9"/>
</g>
<defs>
<clipPath id="clip0_421_91">
<rect width="344.609" height="337.717" fill="white"/>
</clipPath>
</defs>
</svg>
